<mxfile host="app.diagrams.net" agent="Mozilla/5.0 (Windows NT 10.0; Win64; x64) AppleWebKit/537.36 (KHTML, like Gecko) Chrome/130.0.0.0 Safari/537.36" version="24.8.4">
  <diagram name="Page-1" id="3-Gypil49f5_YVMBfIo6">
    <mxGraphModel dx="794" dy="446" grid="1" gridSize="10" guides="1" tooltips="1" connect="1" arrows="1" fold="1" page="1" pageScale="1" pageWidth="850" pageHeight="1100" math="0" shadow="0">
      <root>
        <mxCell id="0" />
        <mxCell id="1" parent="0" />
        <mxCell id="HBy86X2xbezqwL5Qs3jN-1" value="S1" style="ellipse;whiteSpace=wrap;html=1;aspect=fixed;" vertex="1" parent="1">
          <mxGeometry x="200" y="200" width="80" height="80" as="geometry" />
        </mxCell>
        <mxCell id="HBy86X2xbezqwL5Qs3jN-2" value="S2" style="ellipse;whiteSpace=wrap;html=1;aspect=fixed;" vertex="1" parent="1">
          <mxGeometry x="440" y="200" width="80" height="80" as="geometry" />
        </mxCell>
        <mxCell id="HBy86X2xbezqwL5Qs3jN-3" value="" style="curved=1;endArrow=classic;html=1;rounded=0;exitX=0.5;exitY=0;exitDx=0;exitDy=0;entryX=0.5;entryY=0;entryDx=0;entryDy=0;" edge="1" parent="1" source="HBy86X2xbezqwL5Qs3jN-1" target="HBy86X2xbezqwL5Qs3jN-2">
          <mxGeometry width="50" height="50" relative="1" as="geometry">
            <mxPoint x="300" y="160" as="sourcePoint" />
            <mxPoint x="350" y="110" as="targetPoint" />
            <Array as="points">
              <mxPoint x="280" y="150" />
              <mxPoint x="470" y="170" />
            </Array>
          </mxGeometry>
        </mxCell>
        <mxCell id="HBy86X2xbezqwL5Qs3jN-4" value="FLL / HT" style="edgeLabel;html=1;align=center;verticalAlign=middle;resizable=0;points=[];fontStyle=1" vertex="1" connectable="0" parent="HBy86X2xbezqwL5Qs3jN-3">
          <mxGeometry x="-0.0379" y="2" relative="1" as="geometry">
            <mxPoint x="-4" y="-6" as="offset" />
          </mxGeometry>
        </mxCell>
        <mxCell id="HBy86X2xbezqwL5Qs3jN-5" value="L1=1&lt;div&gt;L2=0&lt;/div&gt;" style="text;html=1;align=center;verticalAlign=middle;resizable=0;points=[];autosize=1;strokeColor=none;fillColor=none;" vertex="1" parent="1">
          <mxGeometry x="215" y="280" width="50" height="40" as="geometry" />
        </mxCell>
        <mxCell id="HBy86X2xbezqwL5Qs3jN-6" value="L1=0&lt;div&gt;L2=1&lt;/div&gt;" style="text;html=1;align=center;verticalAlign=middle;resizable=0;points=[];autosize=1;strokeColor=none;fillColor=none;" vertex="1" parent="1">
          <mxGeometry x="455" y="280" width="50" height="40" as="geometry" />
        </mxCell>
        <mxCell id="HBy86X2xbezqwL5Qs3jN-7" value="" style="curved=1;endArrow=classic;html=1;rounded=0;exitX=0;exitY=1;exitDx=0;exitDy=0;" edge="1" parent="1" source="HBy86X2xbezqwL5Qs3jN-2" target="HBy86X2xbezqwL5Qs3jN-1">
          <mxGeometry width="50" height="50" relative="1" as="geometry">
            <mxPoint x="340" y="450" as="sourcePoint" />
            <mxPoint x="390" y="400" as="targetPoint" />
            <Array as="points">
              <mxPoint x="380" y="310" />
              <mxPoint x="290" y="280" />
            </Array>
          </mxGeometry>
        </mxCell>
        <mxCell id="HBy86X2xbezqwL5Qs3jN-8" value="&lt;b&gt;!FLL &amp;amp;&amp;amp; !HT&lt;/b&gt;" style="edgeLabel;html=1;align=center;verticalAlign=middle;resizable=0;points=[];" vertex="1" connectable="0" parent="HBy86X2xbezqwL5Qs3jN-7">
          <mxGeometry x="0.1165" y="-3" relative="1" as="geometry">
            <mxPoint x="-2" y="12" as="offset" />
          </mxGeometry>
        </mxCell>
        <mxCell id="HBy86X2xbezqwL5Qs3jN-9" style="edgeStyle=orthogonalEdgeStyle;rounded=0;orthogonalLoop=1;jettySize=auto;html=1;entryX=0;entryY=0.5;entryDx=0;entryDy=0;" edge="1" parent="1" source="HBy86X2xbezqwL5Qs3jN-10" target="HBy86X2xbezqwL5Qs3jN-1">
          <mxGeometry relative="1" as="geometry" />
        </mxCell>
        <mxCell id="HBy86X2xbezqwL5Qs3jN-10" value="" style="ellipse;fillColor=strokeColor;html=1;" vertex="1" parent="1">
          <mxGeometry x="120" y="230" width="20" height="20" as="geometry" />
        </mxCell>
        <mxCell id="HBy86X2xbezqwL5Qs3jN-11" value="&lt;div&gt;L1 - led 1&lt;/div&gt;&lt;div&gt;L2 - led 2&lt;/div&gt;FLL - container is full&lt;div&gt;HT - temperature is too high&lt;/div&gt;" style="text;html=1;align=left;verticalAlign=middle;resizable=0;points=[];autosize=1;strokeColor=none;fillColor=none;" vertex="1" parent="1">
          <mxGeometry x="115.61" y="315" width="170" height="70" as="geometry" />
        </mxCell>
      </root>
    </mxGraphModel>
  </diagram>
</mxfile>
